<?xml version="1.0" encoding="UTF-8" standalone="no"?>
<!DOCTYPE svg PUBLIC "-//W3C//DTD SVG 1.1//EN" "http://www.w3.org/Graphics/SVG/1.1/DTD/svg11.dtd">
<svg width="100%" height="100%" viewBox="0 0 72 72" version="1.1" 
xmlns="http://www.w3.org/2000/svg" xmlnsXlink="http://www.w3.org/1999/xlink" 
xmlSpace="preserve" xmlnsSerif="http://www.serif.com/" 
style="fill-rule:evenodd;clip-rule:evenodd;stroke-linejoin:round;stroke-miterlimit:2;">
    <g transform="matrix(1.5,0,0,1.45946,-1308.29,-123.095)">
        <g transform="matrix(0.80155,0,0,0.80155,-1020.69,16.7379)">
            <circle cx="2369.01" cy="91.828" r="7.486" style="fill:rgb(75,161,255);"/>
        </g>
        <g transform="matrix(0.80155,0,0,0.80155,-1020.69,35.4046)">
            <circle cx="2369.01" cy="91.828" r="7.486" style="fill:rgb(75,161,255);"/>
        </g>
        <g transform="matrix(0.80155,0,0,0.80155,-1020.69,54.0712)">
            <circle cx="2369.01" cy="91.828" r="7.486" style="fill:rgb(75,161,255);"/>
        </g>
        <g transform="matrix(0.80155,0,0,0.80155,-1002.69,16.7379)">
            <circle cx="2369.01" cy="91.828" r="7.486" style="fill:rgb(75,161,255);"/>
        </g>
        <g transform="matrix(0.80155,0,0,0.80155,-1002.69,35.4046)">
            <circle cx="2369.01" cy="91.828" r="7.486" style="fill:rgb(75,161,255);"/>
        </g>
        <g transform="matrix(0.80155,0,0,0.80155,-1002.69,54.0712)">
            <circle cx="2369.01" cy="91.828" r="7.486" style="fill:rgb(75,161,255);"/>
        </g>
        <g transform="matrix(0.80155,0,0,0.80155,-984.687,16.7379)">
            <circle cx="2369.01" cy="91.828" r="7.486" style="fill:rgb(75,161,255);"/>
        </g>
        <g transform="matrix(0.80155,0,0,0.80155,-984.687,35.4046)">
            <circle cx="2369.01" cy="91.828" r="7.486" style="fill:rgb(75,161,255);"/>
        </g>
        <g transform="matrix(0.80155,0,0,0.80155,-984.687,54.0712)">
            <circle cx="2369.01" cy="91.828" r="7.486" style="fill:rgb(75,161,255);"/>
        </g>
    </g>
</svg>
